<?xml version="1.0" encoding="utf-8"?>
<!-- Generator: Adobe Illustrator 25.0.0, SVG Export Plug-In . SVG Version: 6.00 Build 0)  -->
<svg version="1.1" id="Layer_01" xmlns="http://www.w3.org/2000/svg" xmlns:xlink="http://www.w3.org/1999/xlink" x="0px" y="0px"
	 viewBox="0 0 2583.74 288" style="enable-background:new 0 0 2583.74 288;" xml:space="preserve">
<style type="text/css">
	.st0{fill:#E5B3AA;}
	.st1{fill:#450E03;}
	.st2{fill:#771809;}
</style>

<path class="st1" d="M1512,288c12,0,24,0,36,0c0-49.52,0-99.05,0-148.57c63.58-16.42,108-73.76,108-139.43c-96,0-192,0-288,0
	c0,65.66,44.42,123.01,108,139.43c0,37.52,0,75.05,0,112.57C1476,271.88,1492.12,288,1512,288z"/>
<path class="st2" d="M2549.8,144c-33.94,0-67.88,0-101.82,0c0,48,0,96,0,144c-79.53,0-144-64.47-144-144s64.47-144,144-144
	c61.02,0,115.42,38.47,135.76,96C2592.03,119.43,2574.65,144,2549.8,144z"/>
<path class="st2" d="M2189.82,144c-33.94,0-67.88,0-101.82,0c0,48,0,96,0,144c-79.53,0-144-64.47-144-144S2008.47,0,2088,0
	c61.02,0,115.42,38.47,135.76,96C2232.05,119.43,2214.67,144,2189.82,144z"/>
<path class="st2" d="M1728,0c61.02,0,115.42,38.47,135.76,96c8.28,23.43-9.09,48-33.94,48c-16.97,0-24.51,21.33-11.31,32
	c33.83,27.34,53.49,68.5,53.49,112c-48,0-96,0-144,0c0-48,0-96,0-144S1728,48,1728,0z"/>
<path class="st1" d="M1036.8,230.4c-14.4-19.2-43.2-19.2-57.6,0C952.01,266.66,909.33,288,864,288c0-96,0-192,0-288
	c45.33,0,88.01,21.34,115.2,57.6c14.4,19.2,43.2,19.2,57.6,0C1064,21.34,1106.68,0,1152,0c0,96,0,192,0,288
	C1106.68,288,1064,266.66,1036.8,230.4z"/>
<path class="st2" d="M216,252c0,19.88,16.12,36,36,36c12,0,24,0,36,0c0-48,0-96,0-144C288,64.47,223.53,0,144,0S0,64.47,0,144
	c0,48,0,96,0,144c12,0,24,0,36,0c19.88,0,36-16.12,36-36c0-36,0-72,0-108c48,0,96,0,144,0C216,180,216,216,216,252z"/>
<path class="st1" d="M1224,36c0,84,0,168,0,252c12,0,24,0,36,0c19.88,0,36-16.12,36-36c0-84,0-168,0-252c-12,0-24,0-36,0
	C1240.12,0,1224,16.12,1224,36z"/>
<path class="st1" d="M792,36c0,84,0,168,0,252c-12,0-24,0-36,0c-19.88,0-36-16.12-36-36c0-84,0-168,0-252c12,0,24,0,36,0
	C775.88,0,792,16.12,792,36z"/>
<path class="st1" d="M360,144c0,79.53,64.47,144,144,144c0-36,0-72,0-108c0-19.88,16.12-36,36-36c36,0,72,0,108,0
	C648,64.47,583.53,0,504,0c0,36,0,72,0,108c0,19.88-16.12,36-36,36C432,144,396,144,360,144z"/>
</svg>
